<svg width="34" height="34" viewBox="0 0 34 34" fill="none" xmlns="http://www.w3.org/2000/svg">
<rect width="34" height="34" rx="5" fill="white"/>
<path d="M23.6668 12.8637C23.1675 13.085 22.6379 13.2302 22.0955 13.2944C22.667 12.9527 23.0947 12.4148 23.2988 11.781C22.7619 12.1 22.1743 12.3246 21.5615 12.445C21.186 12.0453 20.6991 11.7676 20.1639 11.648C19.6287 11.5283 19.0699 11.5722 18.56 11.774C18.05 11.9757 17.6125 12.3261 17.304 12.7795C16.9956 13.233 16.8305 13.7686 16.8302 14.317C16.8298 14.5268 16.8533 14.7359 16.9002 14.9404C15.8127 14.8858 14.7488 14.6031 13.7776 14.1107C12.8064 13.6184 11.9496 12.9273 11.2628 12.0824C10.913 12.6846 10.8058 13.3975 10.9631 14.076C11.1204 14.7545 11.5304 15.3475 12.1095 15.7344C11.6748 15.721 11.2496 15.6038 10.8695 15.3924V15.427C10.8696 16.0587 11.0882 16.6708 11.4882 17.1597C11.8882 17.6485 12.445 17.9839 13.0642 18.109C12.8293 18.1729 12.5869 18.205 12.3435 18.2044C12.1706 18.2044 11.9981 18.1884 11.8282 18.1564C12.0029 18.6998 12.343 19.1751 12.801 19.5157C13.2591 19.8564 13.8121 20.0454 14.3828 20.0564C13.2358 20.9541 11.7798 21.3609 10.3335 21.1877C11.5842 21.9917 13.04 22.4185 14.5268 22.417C15.5507 22.4239 16.5657 22.2274 17.5129 21.8387C18.4602 21.4501 19.3208 20.8771 20.0447 20.1531C20.7687 19.4291 21.3416 18.5685 21.7301 17.6212C22.1187 16.6739 22.3152 15.6589 22.3082 14.635C22.3082 14.5164 22.3053 14.3986 22.2995 14.2817C22.8359 13.894 23.2989 13.4138 23.6668 12.8637Z" fill="#242424"/>
</svg>
