<svg width="48" height="48" viewBox="0 0 48 48" fill="none" xmlns="http://www.w3.org/2000/svg">
<circle cx="24" cy="24" r="24" fill="#370E6C" fill-opacity="0.05"/>
<g clip-path="url(#clip0_71_40213)">
<path d="M10.5386 22.8621C10.2409 22.8621 10 23.103 10 23.4003V26.0926C10 26.3902 10.2409 26.6312 10.5386 26.6312C10.8359 26.6312 11.0768 26.3902 11.0768 26.0926V23.4003C11.0768 23.103 10.8359 22.8621 10.5386 22.8621Z" fill="#210E6C"/>
<path d="M13.2329 20.6572C12.9356 20.6572 12.6943 20.8985 12.6943 21.1958V28.6508C12.6943 28.9485 12.9356 29.1894 13.2329 29.1894C13.5302 29.1894 13.7715 28.9485 13.7715 28.6508V21.1958C13.7715 20.8985 13.5302 20.6572 13.2329 20.6572Z" fill="#210E6C"/>
<path d="M15.9233 16.939C15.626 16.939 15.3848 17.1799 15.3848 17.4772V32.5543C15.3848 32.8516 15.626 33.0929 15.9233 33.0929C16.2207 33.0929 16.4619 32.8516 16.4619 32.5543V17.4772C16.4619 17.1799 16.2207 16.939 15.9233 16.939Z" fill="#210E6C"/>
<path d="M18.6152 19.6312C18.3179 19.6312 18.0767 19.8722 18.0767 20.1698V29.3234C18.0767 29.6208 18.3179 29.862 18.6152 29.862C18.9126 29.862 19.1538 29.6208 19.1538 29.3234V20.1698C19.1538 19.8722 18.9126 19.6312 18.6152 19.6312Z" fill="#210E6C"/>
<path d="M26.7448 18.3275C26.4475 18.3275 26.2065 18.5685 26.2065 18.8661V30.9807C26.2065 31.278 26.4475 31.5189 26.7448 31.5189C27.0421 31.5189 27.2834 31.278 27.2834 30.9807V18.8661C27.2834 18.5685 27.0421 18.3275 26.7448 18.3275Z" fill="#210E6C"/>
<path d="M32.0772 19.0927C31.7798 19.0927 31.5386 19.3339 31.5386 19.6312V30.4003C31.5386 30.6979 31.7798 30.9389 32.0772 30.9389C32.3745 30.9389 32.6154 30.6979 32.6154 30.4003V19.6312C32.6154 19.3339 32.3745 19.0927 32.0772 19.0927Z" fill="#210E6C"/>
<path d="M34.769 21.7849C34.4717 21.7849 34.2305 22.0262 34.2305 22.3235V27.708C34.2305 28.0053 34.4717 28.2466 34.769 28.2466C35.0664 28.2466 35.3073 28.0053 35.3073 27.708V22.3235C35.3073 22.0262 35.0664 21.7849 34.769 21.7849Z" fill="#210E6C"/>
<path d="M29.3848 14.7849C29.0871 14.7849 28.8462 15.0262 28.8462 15.3235V34.7079C28.8462 35.0056 29.0871 35.2465 29.3848 35.2465C29.6821 35.2465 29.923 35.0056 29.923 34.7079V15.3235C29.923 15.0262 29.6821 14.7849 29.3848 14.7849Z" fill="#210E6C"/>
<path d="M21.3078 23.4003C21.0105 23.4003 20.7695 23.6415 20.7695 23.9388V26.0925C20.7695 26.3902 21.0105 26.6311 21.3078 26.6311C21.6051 26.6311 21.8464 26.3902 21.8464 26.0925V23.9388C21.8464 23.6415 21.6051 23.4003 21.3078 23.4003Z" fill="#210E6C"/>
<path d="M37.4614 23.2201C37.1641 23.2201 36.9229 23.461 36.9229 23.7584V26.0883C36.9229 26.3856 37.1641 26.6269 37.4614 26.6269C37.7588 26.6269 38 26.3856 38 26.0883V23.7584C38 23.461 37.7588 23.2201 37.4614 23.2201Z" fill="#210E6C"/>
<path d="M23.9492 22.1935C23.6516 22.1935 23.4106 22.4344 23.4106 22.7317V27.1149C23.4106 27.4123 23.6516 27.6535 23.9492 27.6535C24.2465 27.6535 24.4875 27.4123 24.4875 27.1149V22.7317C24.4875 22.4344 24.2465 22.1935 23.9492 22.1935Z" fill="#210E6C"/>
</g>
<defs>
<clipPath id="clip0_71_40213">
<rect width="28" height="28" fill="white" transform="translate(10 11)"/>
</clipPath>
</defs>
</svg>
