<svg width="56" height="56" viewBox="0 0 56 56" fill="none" xmlns="http://www.w3.org/2000/svg">
<rect width="56" height="56" rx="28" fill="#F7F7F7"/>
<g clip-path="url(#clip0_71_40082)">
<path d="M42.0002 20.125C42.0002 20.0375 42.0002 19.95 41.9127 19.8625C41.9127 19.8625 41.9127 19.8625 41.9127 19.775C41.9127 19.6875 41.8252 19.6 41.7377 19.5125L41.6502 19.425C41.6502 19.425 41.5627 19.425 41.5627 19.3375L29.3127 14.0875C29.2252 14.0875 29.1377 14 29.0502 14C29.0502 14 29.0502 14 28.9627 14H28.8752C28.7877 14 28.7002 14 28.7002 14.0875L22.5752 16.7125L16.4502 19.3375C16.4502 19.3375 16.3627 19.3375 16.3627 19.425C16.2752 19.425 16.2752 19.5125 16.2752 19.5125C16.1877 19.6 16.1877 19.6875 16.1002 19.775C16.1002 19.775 16.1002 19.775 16.1002 19.8625C16.1002 19.95 16.0127 20.0375 16.0127 20.125V28C16.0127 28.525 16.3627 28.875 16.8877 28.875C17.4127 28.875 17.7627 28.525 17.7627 28V21.4375L28.2627 25.9V39.375C28.2627 39.4625 28.2627 39.55 28.3502 39.6375C28.3502 39.6375 28.3502 39.6375 28.3502 39.725C28.3502 39.8125 28.4377 39.9 28.5252 39.9875L28.6127 40.075H28.7002H28.7877C28.8752 40.075 28.9627 40.1625 29.0502 40.1625C29.1377 40.1625 29.3127 40.1625 29.4002 40.075L41.6502 34.825C42.0002 34.65 42.1752 34.3875 42.1752 34.0375V20.125H42.0002ZM35.0002 21.7875L24.9377 17.5L28.8752 15.8375L38.9377 20.125L35.0002 21.7875ZM18.8127 20.125L22.7502 18.4625L32.8127 22.75L28.8752 24.4125L18.8127 20.125ZM40.2502 33.5125L29.7502 37.975V25.9L40.2502 21.4375V33.5125Z" fill="#242424"/>
<path d="M35.1749 33.4251C35.2624 33.4251 35.4374 33.4251 35.5249 33.3376L37.9749 32.2876C38.0624 32.2001 38.1499 32.2001 38.2374 32.1126C38.2374 32.1126 38.3249 32.0251 38.3249 31.9376C38.3249 31.8501 38.4124 31.8501 38.4124 31.7626C38.4999 31.6751 38.4999 31.5001 38.4999 31.4126V28.7876C38.4999 28.2626 38.1499 27.9126 37.6249 27.9126C37.0999 27.9126 36.7499 28.2626 36.7499 28.7876V30.8001L34.8249 31.5876C34.3874 31.7626 34.1249 32.2876 34.3874 32.7251C34.4749 33.1626 34.8249 33.4251 35.1749 33.4251Z" fill="#242424"/>
<path d="M21 33.2501H17.5L18.9 32.2001C19.25 31.9376 19.3375 31.3251 19.075 30.9751C18.8125 30.6251 18.2 30.5376 17.85 30.8001L14.35 33.4251C14.35 33.4251 14.35 33.4251 14.35 33.5126L14.2625 33.6001C14.2625 33.6001 14.2625 33.6001 14.2625 33.6876C14.2625 33.6876 14.2625 33.7751 14.175 33.7751C14.175 33.7751 14.175 33.8626 14.0875 33.8626V33.9501V34.0376C14.0875 34.0376 14.0875 34.0376 14.0875 34.1251C14.0875 34.1251 14.0875 34.1251 14.0875 34.2126V34.3001V34.3876C14.0875 34.3876 14.0875 34.4751 14.175 34.4751C14.175 34.4751 14.175 34.5626 14.2625 34.5626C14.2625 34.5626 14.2625 34.5626 14.2625 34.6501L14.35 34.7376C14.35 34.7376 14.35 34.7376 14.35 34.8251L17.85 37.4501C18.025 37.5376 18.2 37.6251 18.375 37.6251C18.6375 37.6251 18.9 37.5376 19.075 37.2751C19.3375 36.9251 19.25 36.3126 18.9 36.0501L17.5 35.0001H21C22.4875 35.0001 23.625 36.1376 23.625 37.6251C23.625 39.1126 22.4875 40.2501 21 40.2501H14.875C14.35 40.2501 14 40.6001 14 41.1251C14 41.6501 14.35 42.0001 14.875 42.0001H21C23.45 42.0001 25.375 40.0751 25.375 37.6251C25.375 35.1751 23.45 33.2501 21 33.2501Z" fill="#242424"/>
</g>
<defs>
<clipPath id="clip0_71_40082">
<rect width="28" height="28" fill="white" transform="translate(14 14)"/>
</clipPath>
</defs>
</svg>
