<svg width="56" height="56" viewBox="0 0 56 56" fill="none" xmlns="http://www.w3.org/2000/svg">
<rect width="56" height="56" rx="28" fill="#F7F7F7"/>
<path d="M18.375 39.375H14.875C14.35 39.375 14 39.025 14 38.5V26.25C14 25.725 14.35 25.375 14.875 25.375H18.375C18.9 25.375 19.25 25.725 19.25 26.25V38.5C19.25 39.025 18.9 39.375 18.375 39.375ZM15.75 37.625H17.5V27.125H15.75V37.625Z" fill="#242424"/>
<path d="M41.6499 32.725C41.3874 32.2 40.9499 31.5875 40.2499 31.4125V17.5C40.2499 16.975 39.8999 16.625 39.3749 16.625H33.2499H27.9999H21.8749C21.3499 16.625 20.9999 16.975 20.9999 17.5V28.35C20.1249 28.6125 19.2499 28.9625 18.6374 29.4C18.1999 29.6625 18.1124 30.1875 18.3749 30.625C18.6374 31.0625 19.1624 31.15 19.5999 30.8875C20.9999 30.0125 23.0999 29.4875 23.9749 29.925C24.0624 30.0125 24.2374 30.1875 24.4124 30.3625C25.0249 31.15 25.8999 32.2875 28.6999 31.9375C29.8374 31.7625 30.7124 31.9375 31.1499 32.55C31.4124 32.8125 31.4999 33.1625 31.4999 33.3375C31.4124 33.425 31.2374 33.425 31.1499 33.5125C30.6249 33.775 29.4874 34.2125 29.1374 34.125C28.4374 33.95 25.0249 32.9875 23.7124 32.6375C23.2749 32.55 22.7499 32.8125 22.6624 33.25C22.4874 33.6875 22.8374 34.2125 23.2749 34.3C24.6749 34.65 28.0874 35.6125 28.7874 35.7875C28.9624 35.875 29.1374 35.875 29.3124 35.875C30.1874 35.875 31.1499 35.4375 31.9374 35.0875C32.1999 35 32.3749 34.9125 32.5499 34.825C32.8124 34.7375 32.9874 34.5625 33.1624 34.3875C34.5624 34.2125 35.9624 33.8625 37.2749 33.425C37.7999 33.25 38.3249 33.1625 38.7624 32.9875C39.8999 32.725 40.0749 33.075 40.1624 33.3375C40.2499 33.6 40.3374 33.775 40.3374 33.8625C38.0624 35.175 31.2374 37.5375 29.6624 37.5375C27.8249 37.5375 21.1749 35.4375 18.8124 34.65C18.3749 34.475 17.8499 34.7375 17.6749 35.175C17.4999 35.6125 17.7624 36.1375 18.1999 36.3125C19.0749 36.575 27.2124 39.2875 29.5749 39.2875C31.6749 39.2875 39.2874 36.575 41.4749 35.175C42.0874 34.825 42.1749 33.95 41.6499 32.725ZM32.3749 18.375V23.275L31.2374 22.1375C31.0624 21.9625 30.7999 21.875 30.6249 21.875C30.4499 21.875 30.1874 21.9625 30.0124 22.1375L28.8749 23.275V18.375H32.3749ZM38.4999 31.325C38.4124 31.325 38.3249 31.325 38.1499 31.4125C37.6249 31.5875 37.0999 31.675 36.5749 31.85C35.4374 32.2 34.2124 32.4625 33.0749 32.6375C32.7249 31.2375 31.2374 29.8375 28.4374 30.1875C26.6874 30.45 26.3374 29.925 25.8124 29.3125C25.5499 28.9625 25.2874 28.6125 24.8499 28.35C24.2374 28 23.5374 27.9125 22.7499 28V18.375H27.1249V25.375C27.1249 25.725 27.2999 26.075 27.6499 26.1625C27.9999 26.3375 28.3499 26.25 28.6124 25.9875L30.6249 23.975L32.6374 25.9875C32.8124 26.1625 32.9874 26.25 33.2499 26.25C33.3374 26.25 33.5124 26.25 33.5999 26.1625C33.9499 25.9875 34.1249 25.725 34.1249 25.375V18.375H38.4999V31.325Z" fill="#242424"/>
</svg>
