<svg width="56" height="56" viewBox="0 0 56 56" fill="none" xmlns="http://www.w3.org/2000/svg">
<rect width="56" height="56" rx="28" fill="#F7F7F7"/>
<g clip-path="url(#clip0_71_40065)">
<path d="M41.2125 14.7875C40.1625 13.7375 38.4125 13.7375 37.3625 14.7875L31.2375 20.9125L27.475 20.125L28.6125 18.9875C28.9625 18.6375 28.9625 18.1125 28.6125 17.7625C28.2625 17.4125 27.7375 17.4125 27.3875 17.7625L25.6375 19.5125C25.55 19.6 25.4625 19.6875 25.4625 19.775L23.1 19.3375L23.3625 19.075C23.7125 18.725 23.7125 18.2 23.3625 17.85C23.0125 17.5 22.4875 17.5 22.1375 17.85L21.175 18.8125C21.0875 18.9 21.0875 18.9875 21 18.9875L18.4625 18.4625C18.2 18.375 18.025 18.4625 17.7625 18.55L15.1375 20.3C14.875 20.475 14.7 20.7375 14.7875 21C14.7875 21.2625 14.9625 21.6125 15.225 21.7L22.225 26.075C22.4 26.1625 22.4875 26.25 22.6625 26.25C22.925 26.25 23.275 26.075 23.3625 25.8125C23.625 25.375 23.5375 24.85 23.1 24.5875L17.2375 20.9125L18.4625 20.125L29.6625 22.4L22.3125 29.75H16.625C16.3625 29.75 16.1875 29.8375 16.0125 30.0125L14.2625 31.7625C14.0875 31.9375 14 32.2875 14 32.55C14.0875 32.8125 14.2625 33.075 14.525 33.1625L18.9 34.9125C18.9875 34.9125 19.075 35 19.25 35C19.6 35 19.95 34.825 20.0375 34.475C20.2125 34.0375 20.0375 33.5125 19.5125 33.3375L16.3625 32.1125L16.8875 31.5875H22.6625C22.925 31.5875 23.1 31.5 23.275 31.325L38.5 16.1C38.85 15.75 39.4625 15.75 39.9 16.1C40.25 16.45 40.25 17.0625 39.9 17.5L24.675 32.725C24.5 32.9 24.4125 33.075 24.4125 33.3375V39.1125L23.8875 39.6375L22.6625 36.4875C22.4875 36.05 21.9625 35.7875 21.525 35.9625C21.0875 36.1375 20.825 36.6625 21 37.1L22.75 41.475C22.8375 41.7375 23.1 41.9125 23.3625 42C23.45 42 23.45 42 23.5375 42C23.8 42 23.975 41.9125 24.15 41.7375L25.9 39.9875C26.075 39.8125 26.1625 39.6375 26.1625 39.375V33.6L33.5125 26.25L35.7875 37.45L35 38.675L31.325 32.8125C31.0625 32.375 30.5375 32.2875 30.1 32.55C29.6625 32.8125 29.575 33.3375 29.8375 33.775L34.2125 40.775C34.3875 41.0375 34.65 41.2125 34.9125 41.2125C35.175 41.2125 35.4375 41.0375 35.6125 40.8625L37.3625 38.2375C37.45 38.0625 37.5375 37.8 37.45 37.5375L36.925 35C37.0125 35 37.1 34.9125 37.1 34.9125L38.0625 34.0375C38.4125 33.6875 38.4125 33.1625 38.0625 32.8125C37.7125 32.4625 37.1875 32.4625 36.8375 32.8125L36.4875 33.075L36.05 30.7125C36.1375 30.7125 36.225 30.625 36.3125 30.5375L38.0625 28.7875C38.4125 28.4375 38.4125 27.9125 38.0625 27.5625C37.7125 27.2125 37.1875 27.2125 36.8375 27.5625L35.7 28.7L34.9125 24.9375L41.0375 18.8125C42.2625 17.5875 42.2625 15.8375 41.2125 14.7875Z" fill="#242424"/>
</g>
<defs>
<clipPath id="clip0_71_40065">
<rect width="28" height="28" fill="white" transform="translate(14 14)"/>
</clipPath>
</defs>
</svg>
