<svg width="48" height="48" viewBox="0 0 48 48" fill="none" xmlns="http://www.w3.org/2000/svg">
<circle cx="24" cy="24" r="24" fill="#370E6C" fill-opacity="0.05"/>
<path d="M14.4258 15.6552V30.4836C14.4385 30.82 14.5218 31.1499 14.6702 31.452C14.8186 31.7541 15.0289 32.0216 15.2873 32.2373V34.3489C15.2873 36.4665 18.4303 38.125 22.4421 38.125C26.4544 38.125 29.5974 36.4665 29.5974 34.3489V32.2319C29.8525 32.0167 30.0603 31.7511 30.2079 31.4518C30.3555 31.1526 30.4397 30.8261 30.4553 30.4927V15.6552C30.2467 10.6582 14.6369 10.6521 14.4258 15.6552ZM28.6599 34.3489C28.6599 35.7199 26.1615 37.1875 22.4421 37.1875C18.7233 37.1875 16.2248 35.7199 16.2248 34.3489V32.9132C19.1326 34.7001 25.7585 34.7011 28.6599 32.911L28.6599 34.3489ZM29.5178 30.4836C28.6426 34.1979 18.2452 33.8801 16.0569 31.6709C15.8615 31.5378 15.698 31.3632 15.5781 31.1595C15.4582 30.9558 15.3848 30.7281 15.3633 30.4927V17.4554C18.1203 20.0712 26.7648 20.0672 29.5178 17.4551L29.5178 30.4836ZM22.4403 18.4979C18.2696 18.4979 15.3633 16.9997 15.3633 15.6552C15.3633 14.3108 18.2696 12.8125 22.4403 12.8125C26.611 12.8125 29.5178 14.3108 29.5178 15.6552C29.5178 16.9997 26.611 18.4979 22.4403 18.4979Z" fill="#210E6C"/>
<path d="M16.9634 15.6551C16.9634 17.1434 20.4058 17.5403 22.4401 17.5403C24.4744 17.5403 27.9168 17.1434 27.9168 15.6552C27.9308 13.1283 16.9537 13.125 16.9634 15.6551ZM22.4401 16.6028C19.5296 16.6028 18.0419 15.9372 17.905 15.6552C18.0423 15.3732 19.5305 14.7081 22.4401 14.7081C25.3981 14.7081 26.8868 15.3957 26.9811 15.6415C26.8872 15.9152 25.3986 16.6028 22.4401 16.6028Z" fill="#210E6C"/>
<path d="M19.7889 31.0567L17.2781 30.2762C17.1601 30.242 17.0335 30.2555 16.9254 30.3137C16.8173 30.3719 16.7363 30.4702 16.6998 30.5874C16.6634 30.7047 16.6744 30.8316 16.7305 30.9408C16.7866 31.05 16.8833 31.1329 16.9998 31.1716L19.5106 31.9521C19.6285 31.9862 19.7551 31.9727 19.8632 31.9145C19.9712 31.8563 20.0522 31.758 20.0886 31.6408C20.1251 31.5236 20.1141 31.3967 20.058 31.2875C20.002 31.1783 19.9054 31.0954 19.7889 31.0567Z" fill="#210E6C"/>
<path d="M28.1453 30.2709C28.268 30.2685 28.3849 30.218 28.4709 30.1304C28.5568 30.0427 28.605 29.9249 28.6049 29.8021C28.6049 29.6793 28.5568 29.5615 28.4708 29.4738C28.3849 29.3862 28.268 29.3358 28.1452 29.3334C28.0225 29.3358 27.9056 29.3862 27.8196 29.4739C27.7337 29.5615 27.6855 29.6794 27.6855 29.8021C27.6856 29.9249 27.7337 30.0428 27.8197 30.1304C27.9056 30.218 28.0225 30.2685 28.1453 30.2709Z" fill="#210E6C"/>
<path d="M26.3645 31.6615C26.4872 31.6591 26.6041 31.6087 26.6901 31.521C26.776 31.4334 26.8242 31.3155 26.8242 31.1927C26.8242 31.07 26.776 30.9521 26.6901 30.8645C26.6041 30.7768 26.4872 30.7264 26.3645 30.724C26.2417 30.7264 26.1248 30.7768 26.0389 30.8645C25.9529 30.9521 25.9048 31.07 25.9048 31.1928C25.9048 31.3155 25.9529 31.4334 26.0389 31.521C26.1249 31.6087 26.2418 31.6591 26.3645 31.6615Z" fill="#210E6C"/>
<path d="M23.6218 32.4109C23.7446 32.4085 23.8615 32.3581 23.9474 32.2704C24.0334 32.1828 24.0815 32.0649 24.0815 31.9421C24.0815 31.8194 24.0334 31.7015 23.9474 31.6139C23.8614 31.5262 23.7445 31.4758 23.6218 31.4734C23.4991 31.4758 23.3822 31.5262 23.2962 31.6139C23.2103 31.7015 23.1621 31.8194 23.1621 31.9422C23.1621 32.0649 23.2103 32.1828 23.2962 32.2704C23.3822 32.3581 23.4991 32.4085 23.6218 32.4109Z" fill="#210E6C"/>
<path d="M37.555 15.1677C36.9161 14.5252 36.1561 14.0158 35.3191 13.669C34.482 13.3222 33.5845 13.1448 32.6784 13.1471C32.5557 13.1495 32.4388 13.2 32.3528 13.2876C32.2669 13.3753 32.2187 13.4931 32.2188 13.6159C32.2188 13.7386 32.2669 13.8565 32.3529 13.9441C32.4388 14.0318 32.5557 14.0822 32.6785 14.0846C34.2566 14.0925 35.7679 14.7229 36.8839 15.8388C37.9998 16.9548 38.6302 18.4661 38.638 20.0443C38.6399 20.1674 38.6901 20.2848 38.7778 20.3712C38.8655 20.4576 38.9837 20.506 39.1068 20.506C39.2299 20.506 39.3481 20.4575 39.4358 20.3711C39.5235 20.2847 39.5737 20.1673 39.5756 20.0442C39.5779 19.1382 39.4005 18.2406 39.0537 17.4036C38.7069 16.5665 38.1975 15.8066 37.555 15.1677Z" fill="#210E6C"/>
<path d="M32.6784 15.1293C32.5557 15.1317 32.4388 15.1821 32.3528 15.2698C32.2669 15.3574 32.2187 15.4753 32.2188 15.598C32.2188 15.7208 32.2669 15.8387 32.3529 15.9263C32.4388 16.0139 32.5557 16.0644 32.6785 16.0667C33.7319 16.0714 34.7409 16.492 35.4858 17.2369C36.2307 17.9818 36.6513 18.9908 36.6559 20.0443C36.6583 20.167 36.7088 20.2839 36.7965 20.3698C36.8841 20.4557 37.002 20.5039 37.1247 20.5039C37.2475 20.5038 37.3653 20.4557 37.4529 20.3698C37.5406 20.2838 37.591 20.1669 37.5934 20.0442C37.5876 18.7425 37.0679 17.4957 36.1474 16.5752C35.2269 15.6547 33.9802 15.1351 32.6784 15.1293Z" fill="#210E6C"/>
<path d="M34.7991 17.9235C34.4054 17.4208 32.3383 16.4405 32.21 17.5105C32.2095 17.6348 32.2584 17.7542 32.346 17.8425C32.4335 17.9308 32.5526 17.9806 32.6769 17.9811C33.2236 17.9842 33.7471 18.2027 34.1337 18.5893C34.5203 18.9759 34.7388 19.4994 34.7419 20.0461C34.7423 20.1701 34.7919 20.2889 34.8798 20.3764C34.9677 20.4639 35.0866 20.513 35.2106 20.513C36.284 20.3885 35.302 18.317 34.7991 17.9235Z" fill="#210E6C"/>
</svg>
