<svg width="34" height="34" viewBox="0 0 34 34" fill="none" xmlns="http://www.w3.org/2000/svg">
<rect width="34" height="34" rx="5" fill="white"/>
<path fill-rule="evenodd" clip-rule="evenodd" d="M10 14C10 11.7909 11.7909 10 14 10H20C22.2091 10 24 11.7909 24 14V20C24 22.2091 22.2091 24 20 24H14C11.7909 24 10 22.2091 10 20V14ZM17 14.5C16.5055 14.5 16.0222 14.6466 15.6111 14.9213C15.2 15.196 14.8795 15.5865 14.6903 16.0433C14.5011 16.5001 14.4516 17.0028 14.548 17.4877C14.6445 17.9727 14.8826 18.4181 15.2322 18.7678C15.5819 19.1174 16.0273 19.3555 16.5123 19.452C16.9972 19.5484 17.4999 19.4989 17.9567 19.3097C18.4135 19.1205 18.804 18.8 19.0787 18.3889C19.3534 17.9778 19.5 17.4945 19.5 17C19.5 16.3371 19.2367 15.7014 18.7681 15.2326C18.2995 14.7638 17.6639 14.5003 17.001 14.5H17ZM20.3333 12.6264C20.4567 12.544 20.6017 12.5 20.75 12.5C20.9489 12.5001 21.1399 12.5791 21.2804 12.7198C21.421 12.8604 21.5 13.0511 21.5 13.25C21.5 13.3983 21.456 13.5433 21.3736 13.6667C21.2912 13.79 21.1741 13.8861 21.037 13.9429C20.9 13.9997 20.7492 14.0145 20.6037 13.9856C20.4582 13.9566 20.3246 13.8852 20.2197 13.7803C20.1148 13.6754 20.0434 13.5418 20.0144 13.3963C19.9855 13.2508 20.0003 13.1 20.0571 12.963C20.1139 12.8259 20.21 12.7088 20.3333 12.6264Z" fill="#242424"/>
</svg>
