<svg width="48" height="48" viewBox="0 0 48 48" fill="none" xmlns="http://www.w3.org/2000/svg">
<circle cx="24" cy="24" r="24" fill="#370E6C" fill-opacity="0.05"/>
<path d="M33.1921 14.83C30.7368 12.3602 27.4722 11 23.9998 11C20.5275 11 17.2629 12.3602 14.8076 14.83C12.3522 17.2997 11 20.5835 11 24.0763C11 27.5691 12.3522 30.8529 14.8076 33.3226C17.2629 35.7924 20.5275 37.1526 23.9998 37.1526C27.4722 37.1526 30.7368 35.7924 33.1921 33.3226C35.6475 30.8529 36.9997 27.5691 36.9997 24.0763C36.9997 20.5835 35.6475 17.2997 33.1921 14.83ZM23.9998 35.5959C17.6851 35.5959 12.5476 30.4282 12.5476 24.0763C12.5476 17.7244 17.6851 12.5567 23.9998 12.5567C30.3146 12.5567 35.4521 17.7244 35.4521 24.0763C35.4521 30.4282 30.3146 35.5959 23.9998 35.5959Z" fill="#210E6C"/>
<path d="M21.188 20.6222C19.9209 19.3476 17.859 19.3477 16.5919 20.6222C16.2897 20.9262 16.2897 21.419 16.5919 21.723C16.8941 22.0269 17.3841 22.0269 17.6863 21.723C18.3501 21.0553 19.4301 21.0554 20.0938 21.723C20.2449 21.875 20.4429 21.951 20.6409 21.951C20.8389 21.951 21.037 21.875 21.188 21.723C21.4902 21.419 21.4902 20.9262 21.188 20.6222Z" fill="#210E6C"/>
<path d="M31.4058 20.6225C30.1386 19.3479 28.0768 19.3478 26.8097 20.6225C26.5075 20.9264 26.5075 21.4193 26.8097 21.7232C27.1119 22.0272 27.6019 22.0272 27.904 21.7232C28.5677 21.0556 29.6477 21.0555 30.3115 21.7232C30.4627 21.8752 30.6606 21.9513 30.8586 21.9513C31.0566 21.9513 31.2547 21.8752 31.4058 21.7232C31.7079 21.4193 31.7079 20.9265 31.4058 20.6225Z" fill="#210E6C"/>
<path d="M30.8611 24.6472H17.139C16.7117 24.6472 16.3652 24.9957 16.3652 25.4256C16.3652 29.6601 19.7902 33.1053 24 33.1053C28.2099 33.1053 31.6349 29.6601 31.6349 25.4256C31.6349 24.9957 31.2884 24.6472 30.8611 24.6472ZM24 31.5486C20.9056 31.5486 18.343 29.2141 17.9618 26.2039H30.0384C29.6571 29.2141 27.0945 31.5486 24 31.5486Z" fill="#210E6C"/>
</svg>
