<svg width="56" height="56" viewBox="0 0 56 56" fill="none" xmlns="http://www.w3.org/2000/svg">
<rect width="56" height="56" rx="28" fill="#F7F7F7"/>
<g clip-path="url(#clip0_71_40073)">
<path d="M25.7431 29.05C25.4806 28.875 25.1306 28.7875 24.7806 28.7875C22.8556 29.05 21.6306 28.0875 21.0181 27.475L20.9306 27.3875C20.4931 27.0375 19.7931 27.0375 19.3556 27.3875L19.1806 27.5625C18.5681 28.0875 17.4306 29.1375 15.4181 28.7875C15.0681 28.7 14.7181 28.875 14.4556 29.05C14.1931 29.3125 14.0181 29.6625 14.0181 30.0125C13.9306 32.2875 13.9306 40.075 19.7056 41.9125C19.7931 41.9125 19.9681 42 20.0556 42C20.1431 42 20.3181 42 20.4056 41.9125C26.1806 39.9875 26.2681 32.2875 26.0931 30.0125C26.1806 29.6625 26.0056 29.3125 25.7431 29.05ZM20.1431 40.25C15.9431 38.7625 15.7681 32.725 15.7681 30.625C17.9556 30.8 19.3556 29.6625 20.1431 29.05C20.9306 29.6625 22.3306 30.7125 24.5181 30.625C24.5181 32.725 24.3431 38.675 20.1431 40.25Z" fill="#242424"/>
<path d="M42.0184 20.125C42.0184 20.0375 42.0184 19.95 41.9309 19.8625C41.9309 19.8625 41.9309 19.8625 41.9309 19.775C41.9309 19.6875 41.8434 19.6 41.7559 19.5125L41.6684 19.425C41.6684 19.425 41.5809 19.425 41.5809 19.3375L29.3309 14.0875C29.2434 14.0875 29.1559 14 29.0684 14H28.9809C28.8934 14 28.8934 14 28.8059 14C28.7184 14 28.6309 14 28.6309 14L22.5059 16.625L16.3809 19.25C16.3809 19.25 16.2934 19.25 16.2934 19.3375C16.2059 19.3375 16.2059 19.425 16.2059 19.425C16.1184 19.5125 16.1184 19.6 16.0309 19.6875C16.0309 19.6875 16.0309 19.6875 16.0309 19.775C16.0309 19.8625 15.9434 19.95 15.9434 20.0375V25.2875C15.9434 25.8125 16.2934 26.1625 16.8184 26.1625C17.3434 26.1625 17.6934 25.8125 17.6934 25.2875V21.35L28.1934 25.8125V39.375C28.1934 39.4625 28.1934 39.55 28.2809 39.6375C28.2809 39.6375 28.2809 39.6375 28.2809 39.725C28.2809 39.8125 28.3684 39.9 28.4559 39.9875L28.5434 40.075H28.6309H28.7184C28.8059 40.075 28.8934 40.1625 28.9809 40.1625C29.0684 40.1625 29.2434 40.1625 29.3309 40.075L41.5809 34.825C41.9309 34.65 42.1059 34.3875 42.1059 34.0375V20.125C42.0184 20.125 42.0184 20.125 42.0184 20.125ZM35.0184 21.7875L24.9559 17.5L28.8934 15.8375L38.9559 20.125L35.0184 21.7875ZM18.8309 20.125L22.7684 18.4625L32.8309 22.75L28.8934 24.4125L18.8309 20.125ZM40.2684 33.5125L29.7684 37.975V25.9L40.2684 21.4375V33.5125Z" fill="#242424"/>
<path d="M35.193 33.4251C35.2805 33.4251 35.4555 33.4251 35.543 33.3376L37.993 32.2876C38.0805 32.2001 38.168 32.2001 38.2555 32.1126C38.2555 32.1126 38.343 32.0251 38.343 31.9376C38.343 31.8501 38.4305 31.8501 38.4305 31.7626C38.518 31.6751 38.518 31.5001 38.518 31.4126V28.7876C38.518 28.2626 38.168 27.9126 37.643 27.9126C37.118 27.9126 36.768 28.2626 36.768 28.7876V30.8001L34.843 31.5876C34.4055 31.7626 34.143 32.2876 34.4055 32.7251C34.493 33.1626 34.843 33.4251 35.193 33.4251Z" fill="#242424"/>
</g>
<defs>
<clipPath id="clip0_71_40073">
<rect width="28" height="28" fill="white" transform="translate(14 14)"/>
</clipPath>
</defs>
</svg>
