<svg width="138" height="19" viewBox="0 0 138 19" fill="none" xmlns="http://www.w3.org/2000/svg">
<path d="M3.71287 19C3.10423 19 2.54493 18.852 2.03499 18.5559C1.52504 18.2598 1.12202 17.8567 0.825928 17.3468C0.529831 16.8369 0.381783 16.2776 0.381783 15.6689V4.5653C0.381783 3.95666 0.529831 3.39736 0.825928 2.88742C1.12202 2.37748 1.52504 1.97446 2.03499 1.67836C2.54493 1.38226 3.10423 1.23422 3.71287 1.23422H14.8165C15.4251 1.23422 15.9762 1.38226 16.4697 1.67836C16.9796 1.97446 17.3827 2.37748 17.6787 2.88742C17.9913 3.39736 18.1476 3.95666 18.1476 4.5653V5.77436H15.1619V4.664C15.1619 4.5324 15.1126 4.42548 15.0139 4.34323C14.9316 4.26098 14.8329 4.21985 14.7178 4.21985H3.78689C3.67174 4.21985 3.56482 4.26098 3.46612 4.34323C3.38387 4.42548 3.34275 4.5324 3.34275 4.664V15.5702C3.34275 15.7018 3.38387 15.8087 3.46612 15.891C3.56482 15.9732 3.67174 16.0144 3.78689 16.0144H14.7178C14.8329 16.0144 14.9316 15.9732 15.0139 15.891C15.1126 15.8087 15.1619 15.7018 15.1619 15.5702V12.0911H11.0659V9.10544H18.1476V15.6689C18.1476 16.2776 17.9913 16.8369 17.6787 17.3468C17.3827 17.8567 16.9796 18.2598 16.4697 18.5559C15.9762 18.852 15.4251 19 14.8165 19H3.71287ZM20.9131 19V1.23422H37.223V4.21985H23.8987V8.63663H34.6322V11.5976H23.8987V16.0144H37.223V19H20.9131ZM39.1529 19V1.23422H42.5333L49.1955 9.17947L55.833 1.23422H59.2381V19H56.2524V5.37956L49.1955 13.7936L42.1138 5.40424V19H39.1529ZM65.2768 19C64.6682 19 64.1089 18.852 63.5989 18.5559C63.1054 18.2598 62.7107 17.8567 62.4146 17.3468C62.1185 16.8369 61.9704 16.2776 61.9704 15.6689V14.4845H64.9314V15.5702C64.9314 15.7018 64.9725 15.8087 65.0547 15.891C65.137 15.9732 65.2439 16.0144 65.3755 16.0144H76.2817C76.4133 16.0144 76.5203 15.9732 76.6025 15.891C76.7012 15.8087 76.7506 15.7018 76.7506 15.5702V12.0417C76.7506 11.9266 76.7012 11.8279 76.6025 11.7456C76.5203 11.6469 76.4133 11.5976 76.2817 11.5976H65.2768C64.6682 11.5976 64.1089 11.4495 63.5989 11.1534C63.1054 10.8573 62.7107 10.4626 62.4146 9.96906C62.1185 9.45912 61.9704 8.89982 61.9704 8.29118V4.5653C61.9704 3.95666 62.1185 3.39736 62.4146 2.88742C62.7107 2.37748 63.1054 1.97446 63.5989 1.67836C64.1089 1.38226 64.6682 1.23422 65.2768 1.23422H76.4051C77.0138 1.23422 77.5648 1.38226 78.0583 1.67836C78.5683 1.97446 78.9713 2.37748 79.2674 2.88742C79.5799 3.39736 79.7362 3.95666 79.7362 4.5653V5.74969H76.7506V4.664C76.7506 4.5324 76.7012 4.42548 76.6025 4.34323C76.5203 4.26098 76.4133 4.21985 76.2817 4.21985H65.3755C65.2439 4.21985 65.137 4.26098 65.0547 4.34323C64.9725 4.42548 64.9314 4.5324 64.9314 4.664V8.19248C64.9314 8.30763 64.9725 8.41455 65.0547 8.51325C65.137 8.5955 65.2439 8.63663 65.3755 8.63663H76.4051C77.0138 8.63663 77.5648 8.78467 78.0583 9.08077C78.5683 9.37687 78.9713 9.77989 79.2674 10.2898C79.5799 10.7833 79.7362 11.3344 79.7362 11.943V15.6689C79.7362 16.2776 79.5799 16.8369 79.2674 17.3468C78.9713 17.8567 78.5683 18.2598 78.0583 18.5559C77.5648 18.852 77.0138 19 76.4051 19H65.2768ZM85.6383 19C85.0296 19 84.4703 18.852 83.9604 18.5559C83.4669 18.2433 83.0721 17.8403 82.776 17.3468C82.4799 16.8533 82.3319 16.3022 82.3319 15.6936V0.222553H85.2681V4.68867H90.9927V7.62496H85.2681V15.5949C85.2681 15.7265 85.3093 15.8416 85.3915 15.9403C85.4902 16.0226 85.6054 16.0637 85.737 16.0637H90.9927V19H85.6383ZM96.2395 19C95.6309 19 95.0798 18.852 94.5863 18.5559C94.0928 18.2433 93.6898 17.8403 93.3773 17.3468C93.0812 16.8533 92.9331 16.3022 92.9331 15.6936V7.99508C92.9331 7.38644 93.0812 6.83537 93.3773 6.34188C93.6898 5.84838 94.0928 5.45359 94.5863 5.15749C95.0798 4.84495 95.6309 4.68867 96.2395 4.68867H104.16C104.785 4.68867 105.344 4.84495 105.838 5.15749C106.331 5.45359 106.726 5.84838 107.022 6.34188C107.318 6.83537 107.467 7.38644 107.467 7.99508V15.6936C107.467 16.3022 107.318 16.8533 107.022 17.3468C106.726 17.8403 106.331 18.2433 105.838 18.5559C105.344 18.852 104.785 19 104.16 19H96.2395ZM96.3382 16.0637H104.061C104.193 16.0637 104.3 16.0226 104.382 15.9403C104.481 15.8416 104.53 15.7265 104.53 15.5949V8.09378C104.53 7.96218 104.481 7.85526 104.382 7.77301C104.3 7.67431 104.193 7.62496 104.061 7.62496H96.3382C96.2066 7.62496 96.0915 7.67431 95.9928 7.77301C95.9105 7.85526 95.8694 7.96218 95.8694 8.09378V15.5949C95.8694 15.7265 95.9105 15.8416 95.9928 15.9403C96.0915 16.0226 96.2066 16.0637 96.3382 16.0637ZM109.584 19V7.99508C109.584 7.38644 109.732 6.83537 110.028 6.34188C110.341 5.84838 110.744 5.45359 111.237 5.15749C111.747 4.84495 112.299 4.68867 112.891 4.68867H120.861V7.62496H112.989C112.858 7.62496 112.743 7.67431 112.644 7.77301C112.562 7.85526 112.521 7.96218 112.521 8.09378V19H109.584ZM125.782 19C125.173 19 124.622 18.852 124.128 18.5559C123.635 18.2433 123.232 17.8403 122.919 17.3468C122.623 16.8533 122.475 16.3022 122.475 15.6936V7.99508C122.475 7.38644 122.623 6.83537 122.919 6.34188C123.232 5.84838 123.635 5.45359 124.128 5.15749C124.622 4.84495 125.173 4.68867 125.782 4.68867H133.702C134.327 4.68867 134.887 4.84495 135.38 5.15749C135.874 5.45359 136.268 5.84838 136.565 6.34188C136.861 6.83537 137.009 7.38644 137.009 7.99508V13.3248H125.412V15.5949C125.412 15.7265 125.453 15.8416 125.535 15.9403C125.634 16.0226 125.749 16.0637 125.88 16.0637H137.009V19H125.782ZM125.412 10.6353H134.072V8.09378C134.072 7.96218 134.023 7.85526 133.924 7.77301C133.842 7.67431 133.735 7.62496 133.604 7.62496H125.88C125.749 7.62496 125.634 7.67431 125.535 7.77301C125.453 7.85526 125.412 7.96218 125.412 8.09378V10.6353Z" fill="white"/>
</svg>
