<svg width="56" height="56" viewBox="0 0 56 56" fill="none" xmlns="http://www.w3.org/2000/svg">
<rect width="56" height="56" rx="28" fill="#4025AD"/>
<g clip-path="url(#clip0_71_49770)">
<rect width="28" height="28" transform="translate(14 14)" fill="#4025AD"/>
<path d="M42.0002 20.125C42.0002 20.0375 42.0002 19.95 41.9127 19.8625C41.9127 19.8625 41.9127 19.8625 41.9127 19.775C41.9127 19.6875 41.8252 19.6 41.7377 19.5125L41.6502 19.425C41.6502 19.425 41.5627 19.425 41.5627 19.3375L29.3127 14.0875C29.2252 14.0875 29.1377 14 29.0502 14C29.0502 14 29.0502 14 28.9627 14H28.8752C28.7877 14 28.7002 14 28.7002 14.0875L22.5752 16.7125L16.4502 19.3375C16.4502 19.3375 16.3627 19.3375 16.3627 19.425C16.2752 19.425 16.2752 19.5125 16.2752 19.5125C16.1877 19.6 16.1877 19.6875 16.1002 19.775C16.1002 19.775 16.1002 19.775 16.1002 19.8625C16.1002 19.95 16.0127 20.0375 16.0127 20.125V28C16.0127 28.525 16.3627 28.875 16.8877 28.875C17.4127 28.875 17.7627 28.525 17.7627 28V21.4375L28.2627 25.9V39.375C28.2627 39.4625 28.2627 39.55 28.3502 39.6375C28.3502 39.6375 28.3502 39.6375 28.3502 39.725C28.3502 39.8125 28.4377 39.9 28.5252 39.9875L28.6127 40.075H28.7002H28.7877C28.8752 40.075 28.9627 40.1625 29.0502 40.1625C29.1377 40.1625 29.3127 40.1625 29.4002 40.075L41.6502 34.825C42.0002 34.65 42.1752 34.3875 42.1752 34.0375V20.125H42.0002ZM35.0002 21.7875L24.9377 17.5L28.8752 15.8375L38.9377 20.125L35.0002 21.7875ZM18.8127 20.125L22.7502 18.4625L32.8127 22.75L28.8752 24.4125L18.8127 20.125ZM40.2502 33.5125L29.7502 37.975V25.9L40.2502 21.4375V33.5125Z" fill="white"/>
<path d="M35.1749 33.425C35.2624 33.425 35.4374 33.425 35.5249 33.3375L37.9749 32.2875C38.0624 32.2 38.1499 32.2 38.2374 32.1125C38.2374 32.1125 38.3249 32.025 38.3249 31.9375C38.3249 31.85 38.4124 31.85 38.4124 31.7625C38.4999 31.675 38.4999 31.5 38.4999 31.4125V28.7875C38.4999 28.2625 38.1499 27.9125 37.6249 27.9125C37.0999 27.9125 36.7499 28.2625 36.7499 28.7875V30.8L34.8249 31.5875C34.3874 31.7625 34.1249 32.2875 34.3874 32.725C34.4749 33.1625 34.8249 33.425 35.1749 33.425Z" fill="white"/>
<path d="M21 33.25H17.5L18.9 32.2C19.25 31.9375 19.3375 31.325 19.075 30.975C18.8125 30.625 18.2 30.5375 17.85 30.8L14.35 33.425C14.35 33.425 14.35 33.425 14.35 33.5125L14.2625 33.6C14.2625 33.6 14.2625 33.6 14.2625 33.6875C14.2625 33.6875 14.2625 33.775 14.175 33.775C14.175 33.775 14.175 33.8625 14.0875 33.8625V33.95V34.0375C14.0875 34.0375 14.0875 34.0375 14.0875 34.125C14.0875 34.125 14.0875 34.125 14.0875 34.2125V34.3V34.3875C14.0875 34.3875 14.0875 34.475 14.175 34.475C14.175 34.475 14.175 34.5625 14.2625 34.5625C14.2625 34.5625 14.2625 34.5625 14.2625 34.65L14.35 34.7375C14.35 34.7375 14.35 34.7375 14.35 34.825L17.85 37.45C18.025 37.5375 18.2 37.625 18.375 37.625C18.6375 37.625 18.9 37.5375 19.075 37.275C19.3375 36.925 19.25 36.3125 18.9 36.05L17.5 35H21C22.4875 35 23.625 36.1375 23.625 37.625C23.625 39.1125 22.4875 40.25 21 40.25H14.875C14.35 40.25 14 40.6 14 41.125C14 41.65 14.35 42 14.875 42H21C23.45 42 25.375 40.075 25.375 37.625C25.375 35.175 23.45 33.25 21 33.25Z" fill="white"/>
</g>
<defs>
<clipPath id="clip0_71_49770">
<rect width="28" height="28" fill="white" transform="translate(14 14)"/>
</clipPath>
</defs>
</svg>
