<svg width="48" height="48" viewBox="0 0 48 48" fill="none" xmlns="http://www.w3.org/2000/svg">
<circle cx="24" cy="23.9999" r="24" fill="#370E6C" fill-opacity="0.05"/>
<path d="M18.2326 36.6721C18.5547 36.8312 18.9459 36.7457 19.1716 36.4626L31.4411 21.0745C31.6248 20.8442 31.6603 20.5291 31.5325 20.2637C31.4046 19.9983 31.1361 19.8296 30.8416 19.8296H25.9445L29.9946 11.6847C30.1128 11.4469 30.0996 11.165 29.9598 10.9393C29.82 10.7137 29.5733 10.5764 29.3079 10.5764H20.1057C19.7535 10.5764 19.4466 10.8162 19.3616 11.1579L16.2942 23.4786C16.2372 23.7076 16.2888 23.9502 16.4341 24.1361C16.5795 24.3221 16.8024 24.4307 17.0383 24.4307H20.6583L17.8279 35.7993C17.7408 36.1492 17.9092 36.5125 18.2326 36.6721ZM22.3836 23.8491C22.4406 23.6201 22.3889 23.3776 22.2436 23.1916C22.0983 23.0057 21.8754 22.897 21.6394 22.897H18.0195L20.705 12.11H28.0701L24.0201 20.255C23.9019 20.4928 23.915 20.7747 24.0549 21.0004C24.1947 21.2261 24.4413 21.3633 24.7068 21.3633H29.2493L20.1663 32.755L22.3836 23.8491Z" fill="#210E6C"/>
</svg>
